<svg width="644" height="359" viewBox="0 0 644 359" fill="none" xmlns="http://www.w3.org/2000/svg">
<g clip-path="url(#clip0_15_127)" filter="url(#filter0_dd_15_127)">
<path d="M143.598 195.815C143.604 194.737 143.437 193.67 143.108 192.679C142.78 191.689 142.296 190.796 141.688 190.057C141.079 189.318 140.359 188.749 139.572 188.384C138.785 188.02 137.949 187.869 137.114 187.94C136.28 188.011 135.466 188.303 134.723 188.797C133.98 189.292 133.324 189.978 132.797 190.814C132.269 191.65 131.881 192.616 131.656 193.654C131.431 194.692 131.375 195.778 131.491 196.845L114.014 226.333C113.268 228.255 112.979 230.417 113.183 232.55C113.387 234.682 114.074 236.69 115.159 238.321L116.53 240.381L122.82 238.76L129.95 230.656L129.111 221.47L137.918 203.639L137.906 203.627C139.448 203.5 140.894 202.622 141.951 201.171C143.008 199.72 143.597 197.805 143.598 195.815V195.815Z" fill="#FFB9B9"/>
<path d="M22.741 339.977L19.8882 326.326L59.3975 305.653L63.6079 325.801L22.741 339.977Z" fill="#FFB8B8"/>
<path d="M13.198 347.022L4 303.004L4.4321 302.855C7.95868 301.631 11.7179 302.263 14.883 304.611C18.0481 306.959 20.3598 310.83 21.3096 315.374L21.3098 315.375L26.9276 342.259L13.198 347.022Z" fill="#2F2E41"/>
<path d="M77.1634 337.796L68.2898 329.482L88.9584 281.424L102.055 293.695L77.1634 337.796Z" fill="#FFB8B8"/>
<path d="M73.1712 351L44.5579 324.189L44.821 323.723C46.9691 319.917 50.2025 317.367 53.8099 316.633C57.4173 315.899 61.1033 317.041 64.0572 319.808L64.0579 319.809L81.5339 336.184L73.1712 351Z" fill="#2F2E41"/>
<path d="M152.595 270.639L130.264 242.69C128.316 240.25 125.749 238.8 123.036 238.604C120.323 238.409 117.647 239.482 115.499 241.627L73.3357 301.978L77.1101 309.543L117.369 274.422L144.627 320.349L170.627 303.599L152.595 270.639Z" fill="#2F2E41"/>
<path d="M142.95 276.583L126.595 274.962L114.75 271.262C114.081 269.918 113.11 268.868 111.965 268.255C110.82 267.641 109.557 267.493 108.346 267.83C107.134 268.167 106.031 268.972 105.184 270.139C104.337 271.306 103.787 272.778 103.608 274.359C103.429 275.939 103.629 277.553 104.181 278.983C104.733 280.413 105.61 281.592 106.697 282.362C107.783 283.131 109.026 283.455 110.259 283.289C111.492 283.124 112.657 282.477 113.596 281.435L113.595 281.446L120.724 285.228L151.337 298.736L155.111 294.954L142.95 276.583Z" fill="#FFB9B9"/>
<path d="M182.37 334.938L173.144 342.503H162.24L111.498 318.188L37.2708 335.479L35.1741 314.946L103.111 276.583L162.66 301.978L182.37 334.938Z" fill="#2F2E41"/>
<path d="M162.66 203.639C171.692 203.639 179.015 194.205 179.015 182.567C179.015 170.929 171.692 161.494 162.66 161.494C153.627 161.494 146.305 170.929 146.305 182.567C146.305 194.205 153.627 203.639 162.66 203.639Z" fill="#FFB9B9"/>
<path d="M204.977 266.701C204.977 279.418 203.422 292.056 200.369 304.15L199.144 309.003L193.273 343.583L186.983 345.745L182.37 338.18L173.144 329.535L166.434 315.486L160.68 303.135L158.885 299.277L152.595 258.752L128.691 241.462L120.724 239.841L122.401 233.898L129.53 221.47L136.659 220.389L138.756 218.228L140.434 219.309L149.681 223.899L179.661 207.578L184.047 208.502L199.144 224.712C203.003 238.153 204.979 252.37 204.977 266.701V266.701Z" fill="white"/>
<path opacity="0.1" d="M200.402 261.995L184.467 275.502L160.681 303.134L158.886 299.277L153.853 266.857H155.112L168.112 236.059L200.402 261.995Z" fill="black"/>
<path d="M168.112 232.817L155.111 263.615L147.563 274.422L140.854 276.583L158.886 301.978L184.467 272.261L200.402 258.752L168.112 232.817Z" fill="white"/>
<path d="M149.939 166.898L148.167 167.777C147.898 167.542 147.667 167.241 147.489 166.892C147.31 166.543 147.186 166.151 147.125 165.74C147.063 165.329 147.065 164.907 147.131 164.497C147.196 164.087 147.323 163.697 147.505 163.351C147.515 163.332 147.525 163.314 147.534 163.296L144.26 163.099C146.362 159.492 149.035 156.501 152.101 154.324C155.167 152.147 158.558 150.834 162.047 150.472C165.537 150.109 169.047 150.706 172.344 152.222C175.641 153.738 178.651 156.138 181.175 159.265C181.324 158.604 182.949 159.891 183.613 161.196C183.836 160.12 185.359 165.324 185.898 169.002C186.148 167.778 187.107 169.755 186.267 171.652C186.799 171.552 187.04 173.308 186.628 174.286C187.21 173.933 187.112 176.029 186.48 177.429C187.312 177.334 186.41 199.398 173.933 197.79C173.064 192.648 173.309 192.968 172.286 186.355C171.81 185.704 171.289 185.111 170.768 184.519L167.953 181.318C164.679 177.595 161.702 173 157.341 171.608C154.344 170.652 152.449 170.436 154.082 166.085C152.606 166.878 151.229 168.058 149.74 168.795C149.76 168.187 149.968 167.507 149.939 166.898Z" fill="#2F2E41"/>
<path d="M170.837 188.781C172.459 188.781 173.773 187.087 173.773 184.998C173.773 182.909 172.459 181.216 170.837 181.216C169.216 181.216 167.902 182.909 167.902 184.998C167.902 187.087 169.216 188.781 170.837 188.781Z" fill="#FFB9B9"/>
<path d="M33.9429 95.6691L33.0471 113.001L46.4987 114.155L47.3945 96.8233L33.9429 95.6691Z" fill="#E6E6E6"/>
<path d="M25.2641 104.872L41.5981 106.274L40.5103 127.319L24.1763 125.918L25.2641 104.872ZM40.8406 107.128L25.9269 105.848L24.9337 125.063L39.8474 126.343L40.8406 107.128Z" fill="#CCCCCC"/>
<path d="M109.96 44.2757L96.7795 47.9247L99.6116 64.9071L112.792 61.2581L109.96 44.2757Z" fill="#E6E6E6"/>
<path d="M100.709 36.0501L104.148 56.6716L88.1428 61.1025L84.7039 40.4811L100.709 36.0501ZM103.302 55.9676L100.162 37.1394L85.5492 41.185L88.6892 60.0133L103.302 55.9676Z" fill="#CCCCCC"/>
<path d="M96.1104 125.831L86.2712 137.706L95.4874 150.383L105.327 138.508L96.1104 125.831Z" fill="#E6E6E6"/>
<path d="M106.034 124.055L94.0865 138.474L82.8955 123.08L94.8431 108.661L106.034 124.055ZM94.1194 137.178L105.028 124.012L94.8102 109.957L83.9015 123.122L94.1194 137.178Z" fill="#CCCCCC"/>
<path d="M604.936 0H206.06C204.618 -2.1111e-06 203.19 0.36588 201.858 1.07676C200.526 1.78763 199.316 2.82958 198.297 4.14311C197.277 5.45664 196.469 7.01603 195.917 8.73224C195.365 10.4484 195.081 12.2879 195.081 14.1455V300.497C195.081 302.355 195.365 304.194 195.917 305.911C196.468 307.627 197.277 309.186 198.297 310.5C199.316 311.813 200.526 312.855 201.858 313.566C203.19 314.277 204.618 314.643 206.06 314.643H604.936C607.847 314.643 610.64 313.153 612.699 310.5C614.758 307.847 615.914 304.249 615.914 300.497V14.1455C615.914 10.3939 614.758 6.79591 612.699 4.14312C610.64 1.49033 607.847 2.13178e-06 604.936 0V0Z" fill="#3F3D56"/>
<path d="M601.195 24.999H209.8V309.471H601.195V24.999Z" fill="white"/>
<path d="M405.163 17.2407C407.38 17.2407 409.177 14.925 409.177 12.0685C409.177 9.21197 407.38 6.89629 405.163 6.89629C402.946 6.89629 401.149 9.21197 401.149 12.0685C401.149 14.925 402.946 17.2407 405.163 17.2407Z" fill="white"/>
<path d="M489.263 309.471H209.8V24.9995L489.263 309.471Z" fill="#F2F2F2"/>
<path d="M271.042 288.184C291.82 288.184 308.664 266.481 308.664 239.71C308.664 212.938 291.82 191.236 271.042 191.236C250.264 191.236 233.42 212.938 233.42 239.71C233.42 266.481 250.264 288.184 271.042 288.184Z" fill="#E42024"/>
<path d="M279.417 276.143C270.161 276.143 261.113 272.606 253.417 265.981C245.721 259.355 239.723 249.938 236.181 238.92C232.639 227.902 231.712 215.779 233.518 204.082C235.324 192.386 239.781 181.642 246.326 173.209C252.87 164.777 261.209 159.034 270.287 156.707C279.365 154.381 288.775 155.575 297.326 160.139C305.877 164.702 313.186 172.431 318.328 182.346C323.47 192.262 326.215 203.92 326.215 215.846C326.215 223.764 325.005 231.605 322.653 238.92C320.301 246.236 316.854 252.883 312.508 258.482C308.163 264.081 303.004 268.522 297.326 271.553C291.648 274.583 285.562 276.143 279.417 276.143V276.143ZM279.417 156.337C270.282 156.337 261.352 159.827 253.757 166.366C246.162 172.905 240.242 182.199 236.746 193.073C233.25 203.946 232.336 215.912 234.118 227.455C235.9 238.999 240.299 249.602 246.758 257.925C253.217 266.247 261.447 271.915 270.406 274.211C279.366 276.507 288.652 275.329 297.092 270.825C305.531 266.32 312.744 258.693 317.819 248.907C322.894 239.121 325.603 227.615 325.603 215.846C325.603 208.031 324.409 200.293 322.088 193.073C319.766 185.853 316.364 179.293 312.076 173.767C307.787 168.241 302.695 163.857 297.092 160.867C291.488 157.876 285.482 156.337 279.417 156.337L279.417 156.337Z" fill="#3F3D56"/>
<path d="M510.588 172.79H474.028V182.633H510.588V172.79Z" fill="#3F3D56"/>
<path d="M545.178 119.465H439.438V123.683H545.178V119.465Z" fill="#3F3D56"/>
<path d="M545.178 136.038H439.438V140.257H545.178V136.038Z" fill="#3F3D56"/>
<path d="M545.178 152.612H439.438V156.83H545.178V152.612Z" fill="#3F3D56"/>
<path d="M573.504 42.0235H558.225V61.7097H573.504V42.0235Z" fill="#E42024"/>
<path d="M580.598 70.8497H562.044V46.945H580.598V70.8497ZM562.851 69.8104H579.791V47.9843H562.851L562.851 69.8104Z" fill="#CCCCCC"/>
<path d="M626.904 304.299H588.706V300.753C588.706 300.66 588.692 300.569 588.664 300.484C588.637 300.398 588.597 300.321 588.546 300.255C588.496 300.19 588.435 300.138 588.369 300.103C588.303 300.068 588.232 300.05 588.16 300.049H575.064C574.992 300.049 574.921 300.068 574.855 300.103C574.789 300.138 574.729 300.19 574.678 300.255C574.627 300.321 574.587 300.398 574.56 300.483C574.532 300.569 574.518 300.66 574.518 300.753V304.299H566.333V300.753C566.333 300.66 566.319 300.569 566.292 300.484C566.264 300.398 566.224 300.321 566.173 300.255C566.123 300.19 566.063 300.138 565.996 300.103C565.93 300.068 565.859 300.049 565.787 300.049H552.691C552.62 300.049 552.549 300.068 552.482 300.103C552.416 300.138 552.356 300.19 552.305 300.255C552.255 300.321 552.214 300.398 552.187 300.484C552.16 300.569 552.146 300.66 552.146 300.753V300.753V304.299H543.96V300.753C543.96 300.66 543.946 300.569 543.919 300.484C543.891 300.398 543.851 300.321 543.8 300.255C543.75 300.19 543.69 300.138 543.623 300.103C543.557 300.068 543.486 300.049 543.415 300.049H530.318C530.247 300.049 530.176 300.068 530.109 300.103C530.043 300.138 529.983 300.19 529.932 300.255C529.882 300.321 529.842 300.398 529.814 300.484C529.787 300.569 529.773 300.66 529.773 300.753V300.753V304.299H521.587V300.753C521.587 300.66 521.573 300.569 521.546 300.484C521.518 300.398 521.478 300.321 521.428 300.255C521.377 300.19 521.317 300.138 521.251 300.103C521.184 300.068 521.113 300.049 521.042 300.049H507.945C507.874 300.049 507.803 300.068 507.737 300.103C507.67 300.138 507.61 300.19 507.56 300.255C507.509 300.321 507.469 300.398 507.441 300.483C507.414 300.569 507.4 300.66 507.4 300.753V304.299H499.215V300.753C499.215 300.66 499.2 300.569 499.173 300.484C499.146 300.398 499.105 300.321 499.055 300.255C499.004 300.19 498.944 300.138 498.878 300.103C498.812 300.068 498.741 300.049 498.669 300.049H485.573C485.501 300.049 485.43 300.068 485.364 300.103C485.298 300.138 485.237 300.19 485.187 300.255C485.136 300.321 485.096 300.398 485.068 300.484C485.041 300.569 485.027 300.66 485.027 300.753V300.753V304.299H476.842V300.753C476.842 300.66 476.828 300.569 476.8 300.484C476.773 300.398 476.733 300.321 476.682 300.255C476.631 300.19 476.571 300.138 476.505 300.103C476.439 300.068 476.368 300.049 476.296 300.049H463.2C463.128 300.049 463.057 300.068 462.991 300.103C462.925 300.138 462.864 300.19 462.814 300.255C462.763 300.321 462.723 300.398 462.696 300.484C462.668 300.569 462.654 300.66 462.654 300.753V300.753V304.299H454.469V300.753C454.469 300.66 454.455 300.569 454.427 300.484C454.4 300.398 454.36 300.321 454.309 300.255C454.258 300.19 454.198 300.138 454.132 300.103C454.066 300.068 453.995 300.049 453.923 300.049H351.335C351.264 300.049 351.193 300.068 351.126 300.103C351.06 300.138 351 300.19 350.949 300.255C350.899 300.321 350.859 300.398 350.831 300.484C350.804 300.569 350.79 300.66 350.79 300.753V300.753V304.299H342.604V300.753C342.604 300.66 342.59 300.569 342.563 300.484C342.535 300.398 342.495 300.321 342.445 300.255C342.394 300.19 342.334 300.138 342.268 300.103C342.201 300.068 342.13 300.049 342.059 300.049H328.962C328.891 300.049 328.82 300.068 328.754 300.103C328.687 300.138 328.627 300.19 328.577 300.255C328.526 300.321 328.486 300.398 328.458 300.484C328.431 300.569 328.417 300.66 328.417 300.753V300.753V304.299H320.232V300.753C320.232 300.66 320.217 300.569 320.19 300.484C320.163 300.398 320.122 300.321 320.072 300.255C320.021 300.19 319.961 300.138 319.895 300.103C319.829 300.068 319.758 300.05 319.686 300.049H306.59C306.518 300.049 306.447 300.068 306.381 300.103C306.315 300.138 306.254 300.19 306.204 300.255C306.153 300.321 306.113 300.398 306.085 300.484C306.058 300.569 306.044 300.66 306.044 300.753V300.753V304.299H297.859V300.753C297.859 300.66 297.845 300.569 297.817 300.484C297.79 300.398 297.749 300.321 297.699 300.255C297.648 300.19 297.588 300.138 297.522 300.103C297.456 300.068 297.385 300.049 297.313 300.049H284.217C284.145 300.049 284.074 300.068 284.008 300.103C283.942 300.138 283.881 300.19 283.831 300.255C283.78 300.321 283.74 300.398 283.712 300.484C283.685 300.569 283.671 300.66 283.671 300.753V300.753V304.299H275.486V300.753C275.486 300.66 275.472 300.569 275.444 300.484C275.417 300.398 275.377 300.321 275.326 300.255C275.275 300.19 275.215 300.138 275.149 300.103C275.083 300.068 275.012 300.049 274.94 300.049H261.844C261.772 300.049 261.701 300.068 261.635 300.103C261.569 300.138 261.509 300.19 261.458 300.255C261.407 300.321 261.367 300.398 261.34 300.484C261.312 300.569 261.298 300.66 261.298 300.753V300.753V304.299H253.113V300.753C253.113 300.66 253.099 300.569 253.071 300.484C253.044 300.398 253.004 300.321 252.953 300.255C252.902 300.19 252.842 300.138 252.776 300.103C252.71 300.068 252.639 300.049 252.567 300.049H239.471C239.326 300.049 239.187 300.124 239.085 300.255C238.983 300.387 238.925 300.566 238.925 300.753V304.299H230.74V300.753C230.74 300.66 230.726 300.569 230.698 300.484C230.671 300.398 230.631 300.321 230.58 300.255C230.53 300.19 230.469 300.138 230.403 300.103C230.337 300.068 230.266 300.05 230.194 300.049H217.098C216.953 300.049 216.815 300.124 216.712 300.255C216.61 300.387 216.552 300.566 216.552 300.753V304.299H191.451C187.978 304.299 184.647 306.076 182.191 309.241C179.735 312.405 178.355 316.697 178.355 321.172V328.802C178.355 333.278 179.735 337.57 182.191 340.734C184.647 343.898 187.978 345.676 191.451 345.676H626.904C630.377 345.676 633.708 343.898 636.164 340.734C638.62 337.57 640 333.278 640 328.802V321.172C640 318.957 639.661 316.762 639.003 314.715C638.345 312.668 637.38 310.808 636.164 309.241C634.948 307.674 633.504 306.431 631.915 305.583C630.326 304.735 628.623 304.299 626.904 304.299V304.299Z" fill="#3F3D56"/>
</g>
<defs>
<filter id="filter0_dd_15_127" x="0" y="0" width="644" height="359" filterUnits="userSpaceOnUse" color-interpolation-filters="sRGB">
<feFlood flood-opacity="0" result="BackgroundImageFix"/>
<feColorMatrix in="SourceAlpha" type="matrix" values="0 0 0 0 0 0 0 0 0 0 0 0 0 0 0 0 0 0 127 0" result="hardAlpha"/>
<feOffset dy="4"/>
<feGaussianBlur stdDeviation="2"/>
<feComposite in2="hardAlpha" operator="out"/>
<feColorMatrix type="matrix" values="0 0 0 0 0 0 0 0 0 0 0 0 0 0 0 0 0 0 0.25 0"/>
<feBlend mode="normal" in2="BackgroundImageFix" result="effect1_dropShadow_15_127"/>
<feColorMatrix in="SourceAlpha" type="matrix" values="0 0 0 0 0 0 0 0 0 0 0 0 0 0 0 0 0 0 127 0" result="hardAlpha"/>
<feOffset dy="4"/>
<feGaussianBlur stdDeviation="2"/>
<feComposite in2="hardAlpha" operator="out"/>
<feColorMatrix type="matrix" values="0 0 0 0 0 0 0 0 0 0 0 0 0 0 0 0 0 0 0.25 0"/>
<feBlend mode="normal" in2="effect1_dropShadow_15_127" result="effect2_dropShadow_15_127"/>
<feBlend mode="normal" in="SourceGraphic" in2="effect2_dropShadow_15_127" result="shape"/>
</filter>
<clipPath id="clip0_15_127">
<rect width="636" height="351" fill="white" transform="translate(4)"/>
</clipPath>
</defs>
</svg>
