<svg width="320" height="349" viewBox="0 0 320 349" fill="none" xmlns="http://www.w3.org/2000/svg">
<g clip-path="url(#clip0_15_251)">
<path d="M333.606 181.625C333.655 224.81 318.241 266.334 290.605 297.467C288.939 299.356 287.228 301.2 285.471 302.998C282.796 305.754 280.031 308.403 277.176 310.945C250.467 334.775 217.123 348.166 182.524 348.958C181.372 348.986 180.214 349 179.053 349C151.46 349 116.754 333.039 85.2585 310.945C82.6527 309.117 80.0701 307.247 77.5108 305.334C76.3145 304.449 75.124 303.55 73.9393 302.64C61.7919 293.351 50.2617 283.15 39.4336 272.113C32.344 264.908 25.6959 257.209 19.5315 249.067C-4.66862 216.74 -10.0063 187.613 24.495 181.625C28.5799 180.919 32.5443 180.163 36.3885 179.359C41.9567 178.2 47.2857 176.949 52.3754 175.605C59.2313 173.8 65.6725 171.844 71.6989 169.735C73.7261 169.028 75.7069 168.307 77.6413 167.572C106.239 156.695 125.38 142.51 138.409 127.12C140.619 124.514 142.656 121.878 144.521 119.21C147.374 115.149 149.966 110.88 152.277 106.434C155.468 100.256 158.148 93.7847 160.286 87.0955L160.404 86.7281C170.77 54.3451 167.616 24.3082 179.053 14.2551C227.94 -28.7228 288.804 32.4817 317.371 104.658C318.811 108.295 320.166 111.954 321.435 115.634C322.004 117.279 322.554 118.926 323.083 120.576C324.475 124.877 325.738 129.189 326.872 133.512C327.307 135.161 327.722 136.808 328.116 138.454C328.538 140.23 328.943 142.001 329.317 143.773C332.097 156.742 333.606 169.532 333.606 181.625Z" fill="#F2F2F2"/>
<path d="M182.524 348.958C181.372 348.986 180.214 349 179.053 349C151.46 349 116.754 333.039 85.2584 310.945C82.6527 309.117 80.0701 307.247 77.5107 305.334L79.7554 290.542L147.71 280.772L181.815 309.014L182.524 348.958Z" fill="#2F2E41"/>
<path d="M185.796 84.8202H176.112C175.812 84.8204 175.525 84.9494 175.312 85.1791C175.1 85.4088 174.981 85.7202 174.981 86.045V96.5362C174.981 96.6968 175.011 96.8558 175.068 97.004C175.124 97.1523 175.208 97.287 175.313 97.4003C175.418 97.5136 175.543 97.6034 175.68 97.6645C175.817 97.7256 175.964 97.7569 176.112 97.7564H185.796C186.095 97.7565 186.382 97.6282 186.594 97.3994C186.806 97.1707 186.926 96.8603 186.927 96.5362V86.045C186.926 85.7204 186.806 85.4095 186.594 85.18C186.382 84.9505 186.095 84.8212 185.796 84.8202Z" fill="white"/>
<path d="M185.796 102.698H176.112C175.812 102.698 175.525 102.827 175.312 103.057C175.1 103.287 174.981 103.598 174.981 103.923V114.414C174.981 114.575 175.011 114.734 175.068 114.882C175.124 115.03 175.208 115.165 175.313 115.278C175.418 115.392 175.543 115.481 175.68 115.543C175.817 115.604 175.964 115.635 176.112 115.634H185.796C186.095 115.635 186.382 115.506 186.594 115.277C186.806 115.049 186.926 114.738 186.927 114.414V103.923C186.926 103.598 186.806 103.287 186.594 103.058C186.382 102.828 186.095 102.699 185.796 102.698Z" fill="#E6E6E6"/>
<path d="M185.796 120.576H176.112C175.812 120.576 175.525 120.705 175.312 120.935C175.1 121.165 174.981 121.476 174.981 121.801V132.288C174.981 132.449 175.01 132.608 175.067 132.757C175.123 132.905 175.207 133.041 175.312 133.154C175.417 133.268 175.542 133.358 175.679 133.42C175.816 133.481 175.963 133.513 176.112 133.512H185.796C186.095 133.512 186.383 133.383 186.595 133.154C186.807 132.924 186.927 132.612 186.927 132.288V121.801C186.926 121.476 186.806 121.165 186.594 120.936C186.382 120.706 186.095 120.577 185.796 120.576Z" fill="#E6E6E6"/>
<path d="M186.909 139.462C186.861 139.18 186.723 138.925 186.52 138.741C186.317 138.557 186.061 138.456 185.796 138.454H176.112C175.812 138.454 175.525 138.583 175.312 138.813C175.1 139.043 174.981 139.354 174.981 139.679V150.166C174.981 150.327 175.01 150.486 175.067 150.635C175.123 150.783 175.207 150.919 175.312 151.032C175.417 151.146 175.542 151.236 175.679 151.298C175.816 151.359 175.963 151.391 176.112 151.39H185.796C186.096 151.39 186.383 151.261 186.595 151.032C186.807 150.802 186.927 150.49 186.927 150.166V139.679C186.928 139.606 186.922 139.534 186.909 139.462Z" fill="#E6E6E6"/>
<path d="M186.235 156.426C186.096 156.364 185.946 156.332 185.796 156.332H176.112C175.964 156.332 175.816 156.363 175.679 156.425C175.542 156.486 175.417 156.576 175.312 156.69C175.207 156.804 175.123 156.939 175.067 157.088C175.01 157.237 174.981 157.396 174.981 157.557V168.044C174.981 168.205 175.009 168.364 175.066 168.513C175.123 168.662 175.206 168.797 175.311 168.911C175.416 169.025 175.541 169.115 175.679 169.177C175.816 169.238 175.963 169.269 176.112 169.268H185.796C186.096 169.268 186.383 169.139 186.595 168.91C186.807 168.68 186.927 168.368 186.927 168.044V157.557C186.926 157.316 186.86 157.08 186.737 156.879C186.615 156.678 186.44 156.521 186.235 156.426Z" fill="#E6E6E6"/>
<path d="M206.137 84.8202H196.454C196.154 84.8204 195.866 84.9494 195.654 85.1791C195.442 85.4088 195.323 85.7202 195.323 86.045V96.5362C195.323 96.6968 195.352 96.8558 195.409 97.004C195.466 97.1523 195.549 97.287 195.654 97.4003C195.76 97.5136 195.884 97.6034 196.021 97.6645C196.158 97.7256 196.305 97.7569 196.454 97.7564H206.137C206.436 97.7565 206.723 97.6282 206.936 97.3994C207.148 97.1707 207.267 96.8603 207.268 96.5362V86.045C207.267 85.7204 207.148 85.4095 206.936 85.18C206.724 84.9505 206.437 84.8212 206.137 84.8202Z" fill="#E6E6E6"/>
<path d="M206.137 102.698H196.454C196.154 102.698 195.866 102.827 195.654 103.057C195.442 103.287 195.323 103.598 195.323 103.923V114.414C195.323 114.575 195.352 114.734 195.409 114.882C195.466 115.03 195.549 115.165 195.654 115.278C195.76 115.392 195.884 115.481 196.021 115.543C196.158 115.604 196.305 115.635 196.454 115.634H206.137C206.436 115.635 206.724 115.506 206.936 115.277C207.148 115.049 207.267 114.738 207.268 114.414V103.923C207.267 103.598 207.148 103.287 206.936 103.058C206.724 102.828 206.437 102.699 206.137 102.698Z" fill="#E42024"/>
<path d="M206.137 120.576H196.454C196.154 120.576 195.866 120.705 195.654 120.935C195.442 121.165 195.323 121.476 195.323 121.801V132.288C195.322 132.449 195.351 132.608 195.408 132.757C195.465 132.905 195.548 133.041 195.653 133.154C195.758 133.268 195.883 133.358 196.02 133.42C196.158 133.481 196.305 133.513 196.454 133.512H206.137C206.437 133.512 206.725 133.383 206.937 133.154C207.149 132.924 207.268 132.612 207.268 132.288V121.801C207.267 121.476 207.148 121.165 206.936 120.936C206.724 120.706 206.437 120.577 206.137 120.576Z" fill="#E42024"/>
<path d="M206.137 138.454H196.454C196.216 138.454 195.985 138.535 195.793 138.686C195.601 138.837 195.458 139.049 195.383 139.293C195.343 139.417 195.323 139.547 195.323 139.679V150.166C195.322 150.327 195.351 150.486 195.408 150.635C195.465 150.783 195.548 150.919 195.653 151.032C195.758 151.146 195.883 151.236 196.02 151.298C196.158 151.359 196.305 151.391 196.454 151.39H206.137C206.437 151.39 206.725 151.261 206.937 151.032C207.149 150.802 207.268 150.49 207.268 150.166V139.679C207.267 139.354 207.148 139.043 206.936 138.814C206.724 138.584 206.437 138.455 206.137 138.454Z" fill="#E42024"/>
<path d="M206.137 156.332H196.454C196.305 156.332 196.158 156.363 196.02 156.425C195.883 156.486 195.758 156.576 195.653 156.69C195.548 156.804 195.465 156.939 195.408 157.088C195.351 157.237 195.322 157.396 195.323 157.557V168.044C195.322 168.205 195.351 168.364 195.408 168.513C195.465 168.661 195.548 168.797 195.653 168.91C195.758 169.024 195.883 169.114 196.02 169.176C196.158 169.237 196.305 169.269 196.454 169.268H206.137C206.437 169.268 206.725 169.139 206.937 168.91C207.149 168.68 207.268 168.368 207.268 168.044V157.557C207.268 157.232 207.149 156.921 206.937 156.691C206.725 156.461 206.437 156.332 206.137 156.332Z" fill="#E6E6E6"/>
<path d="M226.479 84.8202H216.795C216.495 84.8204 216.208 84.9494 215.995 85.1791C215.783 85.4088 215.664 85.7202 215.664 86.045V96.5362C215.664 96.6968 215.694 96.8558 215.751 97.004C215.807 97.1523 215.891 97.287 215.996 97.4003C216.101 97.5136 216.226 97.6034 216.363 97.6645C216.5 97.7256 216.647 97.7569 216.795 97.7564H226.479C226.778 97.7565 227.065 97.6282 227.277 97.3994C227.489 97.1707 227.609 96.8603 227.61 96.5362V86.045C227.609 85.7204 227.489 85.4095 227.277 85.18C227.065 84.9505 226.778 84.8212 226.479 84.8202Z" fill="#E42024"/>
<path d="M226.479 102.698H216.795C216.495 102.698 216.208 102.827 215.995 103.057C215.783 103.287 215.664 103.598 215.664 103.923V114.414C215.664 114.575 215.694 114.734 215.751 114.882C215.807 115.03 215.891 115.165 215.996 115.278C216.101 115.392 216.226 115.481 216.363 115.543C216.5 115.604 216.647 115.635 216.795 115.634H226.479C226.778 115.635 227.065 115.506 227.277 115.277C227.489 115.049 227.609 114.738 227.61 114.414V103.923C227.609 103.598 227.489 103.287 227.277 103.058C227.065 102.828 226.778 102.699 226.479 102.698Z" fill="#E42024"/>
<path d="M226.479 120.576H216.795C216.495 120.576 216.208 120.705 215.995 120.935C215.783 121.165 215.664 121.476 215.664 121.801V132.288C215.664 132.449 215.693 132.608 215.75 132.757C215.806 132.905 215.89 133.041 215.995 133.154C216.1 133.268 216.225 133.358 216.362 133.42C216.499 133.481 216.646 133.513 216.795 133.512H226.479C226.778 133.512 227.066 133.383 227.278 133.154C227.49 132.924 227.609 132.612 227.61 132.288V121.801C227.609 121.476 227.489 121.165 227.277 120.936C227.065 120.706 226.778 120.577 226.479 120.576Z" fill="#E6E6E6"/>
<path d="M226.479 138.454H216.795C216.495 138.454 216.208 138.583 215.995 138.813C215.783 139.043 215.664 139.354 215.664 139.679V150.166C215.664 150.327 215.693 150.486 215.75 150.635C215.806 150.783 215.89 150.919 215.995 151.032C216.1 151.146 216.225 151.236 216.362 151.298C216.499 151.359 216.646 151.391 216.795 151.39H226.479C226.778 151.39 227.066 151.261 227.278 151.032C227.49 150.802 227.609 150.49 227.61 150.166V139.679C227.609 139.354 227.489 139.043 227.277 138.814C227.065 138.584 226.778 138.455 226.479 138.454Z" fill="#E42024"/>
<path d="M226.479 156.332H216.795C216.646 156.332 216.499 156.363 216.362 156.425C216.225 156.486 216.1 156.576 215.995 156.69C215.89 156.804 215.806 156.939 215.75 157.088C215.693 157.237 215.664 157.396 215.664 157.557V168.044C215.664 168.205 215.693 168.364 215.75 168.513C215.806 168.661 215.89 168.797 215.995 168.91C216.1 169.024 216.225 169.114 216.362 169.176C216.499 169.237 216.646 169.269 216.795 169.268H226.479C226.778 169.268 227.066 169.139 227.278 168.91C227.49 168.68 227.609 168.368 227.61 168.044V157.557C227.609 157.232 227.49 156.921 227.278 156.691C227.066 156.461 226.778 156.332 226.479 156.332Z" fill="#E42024"/>
<path d="M246.82 84.8202H237.137C236.837 84.8204 236.549 84.9494 236.337 85.1791C236.125 85.4088 236.006 85.7202 236.005 86.045V96.5362C236.006 96.6968 236.035 96.8558 236.092 97.0041C236.149 97.1523 236.232 97.287 236.337 97.4003C236.442 97.5136 236.567 97.6034 236.704 97.6645C236.841 97.7256 236.988 97.7569 237.137 97.7564H246.82C247.119 97.7565 247.406 97.6282 247.618 97.3994C247.83 97.1707 247.95 96.8603 247.951 96.5362V86.045C247.95 85.7204 247.831 85.4095 247.619 85.18C247.407 84.9505 247.12 84.8212 246.82 84.8202Z" fill="#E42024"/>
<path d="M246.82 102.698H237.137C236.837 102.698 236.549 102.827 236.337 103.057C236.125 103.287 236.006 103.598 236.005 103.923V114.414C236.006 114.575 236.035 114.734 236.092 114.882C236.149 115.03 236.232 115.165 236.337 115.278C236.442 115.392 236.567 115.481 236.704 115.543C236.841 115.604 236.988 115.635 237.137 115.634H246.82C247.119 115.635 247.406 115.506 247.618 115.277C247.83 115.049 247.95 114.738 247.951 114.414V103.923C247.95 103.598 247.831 103.287 247.619 103.058C247.407 102.828 247.12 102.699 246.82 102.698Z" fill="white"/>
<path d="M246.82 120.576H237.137C236.837 120.576 236.549 120.705 236.337 120.935C236.125 121.165 236.006 121.476 236.005 121.801V132.288C236.005 132.449 236.034 132.608 236.091 132.757C236.148 132.905 236.231 133.041 236.336 133.154C236.441 133.268 236.566 133.358 236.703 133.42C236.841 133.481 236.988 133.513 237.137 133.512H246.82C247.12 133.512 247.408 133.383 247.62 133.154C247.832 132.924 247.951 132.612 247.951 132.288V121.801C247.95 121.476 247.831 121.165 247.619 120.936C247.407 120.706 247.12 120.577 246.82 120.576Z" fill="white"/>
<path d="M246.82 138.454H237.137C236.837 138.454 236.549 138.583 236.337 138.813C236.125 139.043 236.006 139.354 236.005 139.679V150.166C236.005 150.327 236.034 150.486 236.091 150.635C236.148 150.783 236.231 150.919 236.336 151.032C236.441 151.146 236.566 151.236 236.703 151.298C236.841 151.359 236.988 151.391 237.137 151.39H246.82C247.12 151.39 247.408 151.261 247.62 151.032C247.832 150.802 247.951 150.49 247.951 150.166V139.679C247.95 139.354 247.831 139.043 247.619 138.814C247.407 138.584 247.12 138.455 246.82 138.454Z" fill="#E6E6E6"/>
<path d="M246.82 156.332H237.137C236.988 156.332 236.841 156.363 236.703 156.425C236.566 156.486 236.441 156.576 236.336 156.69C236.231 156.804 236.148 156.939 236.091 157.088C236.034 157.237 236.005 157.396 236.005 157.557V168.044C236.005 168.205 236.034 168.364 236.091 168.513C236.148 168.661 236.231 168.797 236.336 168.91C236.441 169.024 236.566 169.114 236.703 169.176C236.841 169.237 236.988 169.269 237.137 169.268H246.82C247.12 169.268 247.408 169.139 247.62 168.91C247.832 168.68 247.951 168.368 247.951 168.044V157.557C247.951 157.232 247.832 156.921 247.62 156.691C247.408 156.461 247.12 156.332 246.82 156.332Z" fill="#E42024"/>
<path d="M267.161 84.8202H257.474C257.174 84.8213 256.888 84.9509 256.677 85.1805C256.465 85.4101 256.347 85.7209 256.347 86.045V96.5363C256.347 96.8598 256.466 97.1702 256.677 97.399C256.888 97.6278 257.175 97.7564 257.474 97.7564H267.161C267.461 97.7565 267.748 97.6282 267.96 97.3995C268.172 97.1708 268.292 96.8603 268.293 96.5363V86.045C268.292 85.7204 268.172 85.4095 267.96 85.18C267.748 84.9505 267.461 84.8212 267.161 84.8202Z" fill="white"/>
<path d="M267.161 102.698H257.474C257.174 102.699 256.888 102.829 256.677 103.058C256.465 103.288 256.347 103.599 256.347 103.923V114.414C256.347 114.738 256.466 115.048 256.677 115.277C256.888 115.506 257.175 115.634 257.474 115.634H267.161C267.461 115.635 267.748 115.506 267.96 115.277C268.172 115.049 268.292 114.738 268.293 114.414V103.923C268.292 103.598 268.172 103.287 267.96 103.058C267.748 102.828 267.461 102.699 267.161 102.698Z" fill="white"/>
<path d="M267.161 120.576H257.474C257.174 120.577 256.888 120.707 256.677 120.936C256.465 121.166 256.347 121.477 256.347 121.801V132.288C256.347 132.448 256.375 132.607 256.432 132.756C256.488 132.904 256.571 133.039 256.676 133.153C256.78 133.267 256.905 133.357 257.042 133.419C257.179 133.48 257.325 133.512 257.474 133.512H267.161C267.461 133.512 267.749 133.383 267.961 133.154C268.173 132.924 268.292 132.612 268.293 132.288V121.801C268.292 121.476 268.172 121.165 267.96 120.936C267.748 120.706 267.461 120.577 267.161 120.576Z" fill="white"/>
<path d="M267.161 138.454H257.474C257.174 138.455 256.888 138.585 256.677 138.814C256.465 139.044 256.347 139.355 256.347 139.679V150.166C256.347 150.326 256.375 150.485 256.432 150.634C256.488 150.782 256.571 150.917 256.676 151.031C256.78 151.145 256.905 151.235 257.042 151.297C257.179 151.358 257.325 151.39 257.474 151.39H267.161C267.461 151.39 267.749 151.261 267.961 151.032C268.173 150.802 268.292 150.49 268.293 150.166V139.679C268.292 139.354 268.172 139.043 267.96 138.814C267.748 138.584 267.461 138.455 267.161 138.454Z" fill="#E42024"/>
<path d="M267.161 156.332H257.474C257.325 156.332 257.179 156.364 257.042 156.426C256.905 156.488 256.78 156.578 256.676 156.692C256.571 156.805 256.488 156.94 256.432 157.089C256.375 157.237 256.347 157.396 256.347 157.557V168.044C256.347 168.204 256.375 168.363 256.432 168.512C256.488 168.66 256.571 168.795 256.676 168.909C256.78 169.023 256.905 169.113 257.042 169.175C257.179 169.236 257.325 169.268 257.474 169.268H267.161C267.461 169.268 267.749 169.139 267.961 168.91C268.173 168.68 268.292 168.368 268.293 168.044V157.557C268.292 157.232 268.173 156.921 267.961 156.691C267.749 156.461 267.461 156.332 267.161 156.332Z" fill="#E6E6E6"/>
<path d="M287.503 84.8202H277.815C277.516 84.8213 277.229 84.9509 277.018 85.1805C276.807 85.4101 276.688 85.7209 276.688 86.045V96.5363C276.689 96.8598 276.807 97.1702 277.019 97.399C277.23 97.6278 277.516 97.7564 277.815 97.7564H287.503C287.802 97.7565 288.089 97.6282 288.301 97.3995C288.513 97.1707 288.633 96.8603 288.634 96.5363V86.045C288.633 85.7204 288.514 85.4095 288.302 85.18C288.09 84.9505 287.803 84.8212 287.503 84.8202Z" fill="white"/>
<path d="M287.503 102.698H277.815C277.516 102.699 277.229 102.829 277.018 103.058C276.807 103.288 276.688 103.599 276.688 103.923V114.414C276.689 114.738 276.807 115.048 277.019 115.277C277.23 115.506 277.516 115.634 277.815 115.634H287.503C287.802 115.635 288.089 115.506 288.301 115.277C288.513 115.049 288.633 114.738 288.634 114.414V103.923C288.633 103.598 288.514 103.287 288.302 103.058C288.09 102.828 287.803 102.699 287.503 102.698Z" fill="white"/>
<path d="M287.503 120.576H277.815C277.516 120.577 277.229 120.707 277.018 120.936C276.807 121.166 276.688 121.477 276.688 121.801V132.288C276.688 132.448 276.717 132.607 276.773 132.756C276.83 132.904 276.913 133.039 277.017 133.153C277.122 133.267 277.246 133.357 277.383 133.419C277.52 133.48 277.667 133.512 277.815 133.512H287.503C287.803 133.512 288.091 133.383 288.303 133.153C288.515 132.924 288.634 132.612 288.634 132.288V121.801C288.633 121.476 288.514 121.165 288.302 120.936C288.09 120.706 287.803 120.577 287.503 120.576Z" fill="#E42024"/>
<path d="M287.503 138.454H277.815C277.516 138.455 277.229 138.585 277.018 138.814C276.807 139.044 276.688 139.355 276.688 139.679V150.166C276.688 150.326 276.717 150.485 276.773 150.634C276.83 150.782 276.913 150.917 277.017 151.031C277.122 151.145 277.246 151.235 277.383 151.297C277.52 151.358 277.667 151.39 277.815 151.39H287.503C287.803 151.39 288.091 151.261 288.303 151.032C288.515 150.802 288.634 150.49 288.634 150.166V139.679C288.633 139.354 288.514 139.043 288.302 138.814C288.09 138.584 287.803 138.455 287.503 138.454Z" fill="#E6E6E6"/>
<path d="M287.503 156.332H277.815C277.667 156.332 277.52 156.364 277.383 156.426C277.246 156.488 277.122 156.578 277.017 156.692C276.913 156.805 276.83 156.94 276.773 157.089C276.717 157.237 276.688 157.396 276.688 157.557V168.044C276.688 168.204 276.717 168.363 276.773 168.512C276.83 168.66 276.913 168.795 277.017 168.909C277.122 169.023 277.246 169.113 277.383 169.175C277.52 169.236 277.667 169.268 277.815 169.268H287.503C287.803 169.268 288.091 169.139 288.303 168.91C288.515 168.68 288.634 168.368 288.634 168.044V157.557C288.634 157.232 288.515 156.921 288.303 156.691C288.091 156.461 287.803 156.332 287.503 156.332Z" fill="white"/>
<path d="M307.844 84.8202H298.157C297.857 84.8213 297.571 84.9509 297.36 85.1805C297.148 85.4101 297.03 85.7209 297.03 86.045V96.5363C297.03 96.8598 297.149 97.1702 297.36 97.399C297.571 97.6278 297.858 97.7564 298.157 97.7564H307.844C308.144 97.7565 308.431 97.6282 308.643 97.3995C308.855 97.1707 308.974 96.8603 308.976 96.5363V86.045C308.975 85.7204 308.855 85.4095 308.643 85.18C308.431 84.9505 308.144 84.8212 307.844 84.8202Z" fill="#E42024"/>
<path d="M307.844 102.698H298.157C297.857 102.699 297.571 102.829 297.36 103.058C297.148 103.288 297.03 103.599 297.03 103.923V114.414C297.03 114.738 297.149 115.048 297.36 115.277C297.571 115.506 297.858 115.634 298.157 115.634H307.844C308.144 115.635 308.431 115.506 308.643 115.277C308.855 115.049 308.975 114.738 308.976 114.414V103.923C308.975 103.598 308.855 103.287 308.643 103.058C308.431 102.828 308.144 102.699 307.844 102.698Z" fill="#E42024"/>
<path d="M307.844 120.576H298.157C297.857 120.577 297.571 120.707 297.36 120.936C297.148 121.166 297.03 121.477 297.03 121.801V132.288C297.029 132.448 297.058 132.607 297.115 132.756C297.171 132.904 297.254 133.039 297.359 133.153C297.463 133.267 297.588 133.357 297.725 133.419C297.862 133.48 298.008 133.512 298.157 133.512H307.844C308.144 133.512 308.432 133.383 308.644 133.153C308.856 132.924 308.975 132.612 308.976 132.288V121.801C308.975 121.476 308.855 121.165 308.643 120.936C308.431 120.706 308.144 120.577 307.844 120.576Z" fill="#E6E6E6"/>
<path d="M307.844 138.454H298.157C297.857 138.455 297.571 138.585 297.36 138.814C297.148 139.044 297.03 139.355 297.03 139.679V150.166C297.029 150.326 297.058 150.485 297.115 150.634C297.171 150.782 297.254 150.917 297.359 151.031C297.463 151.145 297.588 151.235 297.725 151.297C297.862 151.358 298.008 151.39 298.157 151.39H307.844C308.144 151.39 308.432 151.261 308.644 151.032C308.856 150.802 308.975 150.49 308.976 150.166V139.679C308.975 139.354 308.855 139.043 308.643 138.814C308.431 138.584 308.144 138.455 307.844 138.454Z" fill="white"/>
<path d="M307.844 156.332H298.157C298.008 156.332 297.862 156.364 297.725 156.426C297.588 156.488 297.463 156.578 297.359 156.692C297.254 156.805 297.171 156.94 297.115 157.089C297.058 157.237 297.029 157.396 297.03 157.557V168.044C297.029 168.204 297.058 168.363 297.115 168.512C297.171 168.66 297.254 168.795 297.359 168.909C297.463 169.023 297.588 169.113 297.725 169.175C297.862 169.236 298.008 169.268 298.157 169.268H307.844C308.144 169.268 308.432 169.139 308.644 168.91C308.856 168.68 308.975 168.368 308.976 168.044V157.557C308.975 157.232 308.856 156.921 308.644 156.691C308.432 156.461 308.144 156.332 307.844 156.332Z" fill="#E42024"/>
<path d="M328.186 84.8202H318.498C318.199 84.8213 317.912 84.9509 317.701 85.1805C317.49 85.4101 317.371 85.7209 317.371 86.045V96.5363C317.371 96.8598 317.49 97.1702 317.701 97.399C317.913 97.6278 318.199 97.7564 318.498 97.7564H328.186C328.485 97.7565 328.772 97.6282 328.984 97.3995C329.196 97.1707 329.316 96.8603 329.317 96.5363V86.045C329.316 85.7204 329.197 85.4095 328.985 85.18C328.773 84.9505 328.486 84.8212 328.186 84.8202Z" fill="#E42024"/>
<path d="M328.186 102.698H318.498C318.199 102.699 317.912 102.829 317.701 103.058C317.49 103.288 317.371 103.599 317.371 103.923V114.414C317.371 114.738 317.49 115.048 317.701 115.277C317.913 115.506 318.199 115.634 318.498 115.634H328.186C328.485 115.635 328.772 115.506 328.984 115.277C329.196 115.049 329.316 114.738 329.317 114.414V103.923C329.316 103.598 329.197 103.287 328.985 103.058C328.773 102.828 328.486 102.699 328.186 102.698Z" fill="#E42024"/>
<path d="M328.186 120.576H318.498C318.199 120.577 317.912 120.707 317.701 120.936C317.49 121.166 317.371 121.477 317.371 121.801V132.288C317.371 132.448 317.4 132.607 317.456 132.756C317.513 132.904 317.596 133.039 317.7 133.153C317.805 133.267 317.929 133.357 318.066 133.419C318.203 133.48 318.35 133.512 318.498 133.512H328.186C328.486 133.512 328.773 133.383 328.986 133.153C329.198 132.924 329.317 132.612 329.317 132.288V121.801C329.316 121.476 329.197 121.165 328.985 120.936C328.773 120.706 328.486 120.577 328.186 120.576Z" fill="#E6E6E6"/>
<path d="M328.186 138.454H318.498C318.199 138.455 317.912 138.585 317.701 138.814C317.49 139.044 317.371 139.355 317.371 139.679V150.166C317.371 150.326 317.4 150.485 317.456 150.634C317.513 150.782 317.596 150.917 317.7 151.031C317.805 151.145 317.929 151.235 318.066 151.297C318.203 151.358 318.35 151.39 318.498 151.39H328.186C328.486 151.39 328.773 151.261 328.986 151.032C329.198 150.802 329.317 150.49 329.317 150.166V139.679C329.316 139.354 329.197 139.043 328.985 138.814C328.773 138.584 328.486 138.455 328.186 138.454Z" fill="#E42024"/>
<path d="M328.186 156.332H318.498C318.35 156.332 318.203 156.364 318.066 156.426C317.929 156.488 317.805 156.578 317.7 156.692C317.596 156.805 317.513 156.94 317.456 157.089C317.4 157.237 317.371 157.396 317.371 157.557V168.044C317.371 168.204 317.4 168.363 317.456 168.512C317.513 168.66 317.596 168.795 317.7 168.909C317.805 169.023 317.929 169.113 318.066 169.175C318.203 169.236 318.35 169.268 318.498 169.268H328.186C328.486 169.268 328.773 169.139 328.986 168.91C329.198 168.68 329.317 168.368 329.317 168.044V157.557C329.317 157.232 329.198 156.921 328.986 156.691C328.773 156.461 328.486 156.332 328.186 156.332Z" fill="#E42024"/>
<path d="M146.208 310.946H145.938L146.169 310.913L146.208 310.946Z" fill="#2F2E41"/>
<path d="M123.03 115.444C139.444 115.444 152.751 101.034 152.751 83.2577C152.751 65.4818 139.444 51.0717 123.03 51.0717C106.615 51.0717 93.3082 65.4818 93.3082 83.2577C93.3082 101.034 106.615 115.444 123.03 115.444Z" fill="#FFB6B6"/>
<path d="M149.057 59.6595C149.057 59.6595 156.831 43.5665 139.729 42.1035C139.729 42.1035 125.149 27.7811 110.289 39.4851C110.289 39.4851 102.183 39.4851 97.7504 49.4184C97.7504 49.4184 91.3752 46.8001 89.9742 53.8074C89.9742 53.8074 85.3093 68.4375 89.9742 81.6045C94.6391 94.7715 96.1886 96.2345 96.1886 96.2345C96.1886 96.2345 88.5232 68.6291 107.181 67.1661C125.84 65.7031 146.719 53.076 148.274 69.1689C149.829 85.2619 152.169 89.2271 152.169 89.2271C152.169 89.2271 166.937 66.243 149.057 59.6595Z" fill="#2F2E41"/>
<path d="M199.912 162.579L199.816 163.125L198.742 169.268L191.316 211.761L190.877 214.263L189.954 219.553L188.693 226.77L185.896 242.764L185.095 247.347L184.795 249.067L184.691 249.67L183.86 254.414L183.607 255.846L181.58 272.113L179.81 286.288L185.735 292.704L182.202 296.53L179.884 310.912L179.888 310.945H85.2585C81.4303 308.26 77.6572 305.491 73.9393 302.64L74.718 296.327C74.718 296.327 77.3976 285.054 76.2709 283.706C75.1486 282.359 72.6864 279.952 72.6864 279.952L75.7881 272.113L76.2188 271.025L75.4966 254.805L75.4793 254.414L75.24 249.067L75.2095 248.379L75.1617 247.347L74.2438 226.77L74.2264 226.431L73.948 220.194L73.687 214.263L73.5738 211.761L72.4559 186.732L71.6989 169.735L71.0377 154.938L73.6957 153.963L102.124 143.5L113.9 126.922L138.409 127.12L150.407 127.219L170.426 147.325L174.981 149.68L175.016 149.699L178.283 151.39L186.566 155.673L195.323 160.205L199.816 162.527L199.912 162.579Z" fill="#CACACA"/>
<path d="M117.067 262.659C115.271 263.412 113.345 263.73 111.423 263.59C109.501 263.45 107.631 262.855 105.945 261.848C104.258 260.84 102.796 259.445 101.661 257.759C100.527 256.073 99.7473 254.139 99.3778 252.092L53.0227 244.97L69.137 225.23L110.686 235.02C113.903 234.575 117.158 235.424 119.836 237.406C122.513 239.387 124.426 242.363 125.213 245.77C126 249.177 125.605 252.778 124.104 255.89C122.602 259.003 120.099 261.411 117.067 262.659V262.659Z" fill="#FFB6B6"/>
<path d="M96.3992 226.77C95.5406 225.591 94.325 224.779 92.967 224.476L73.948 220.194L71.9947 219.755C70.8596 219.499 69.7873 218.986 68.848 218.249C67.9087 217.513 67.1235 216.57 66.5439 215.483C65.9427 214.341 65.5789 213.071 65.4781 211.761C65.3875 210.57 65.5191 209.372 65.8653 208.237L72.4558 186.732L76.732 172.778C77.2503 171.095 77.5561 169.344 77.6413 167.572C77.8795 162.67 76.4788 157.838 73.6956 153.963C71.2488 150.556 67.855 148.092 64.0158 146.935C60.1765 145.778 56.0954 145.989 52.3753 147.537C52.2666 147.579 52.1535 147.626 52.0447 147.673C49.3769 148.827 46.9933 150.637 45.0824 152.96C43.1716 155.282 41.7857 158.055 41.0344 161.057L36.3884 179.359L26.8049 217.089C25.8456 220.869 25.6518 224.829 26.2368 228.698C26.8217 232.567 28.1717 236.253 30.1943 239.505C32.2169 242.756 34.8643 245.496 37.9553 247.537C41.0463 249.577 44.508 250.871 48.1034 251.328L75.4966 254.805L88.173 256.416C89.6389 256.607 91.1172 256.192 92.3136 255.256C93.51 254.319 94.3366 252.928 94.6287 251.361C94.6492 251.276 94.6652 251.189 94.6766 251.102L94.9811 249.067L97.5608 231.929L97.5868 231.754C97.7212 230.88 97.685 229.984 97.4805 229.126C97.2759 228.268 96.9076 227.465 96.3992 226.77Z" fill="#CACACA"/>
<path d="M146.594 263.208C148.47 263.68 150.419 263.7 152.303 263.268C154.187 262.836 155.961 261.961 157.5 260.706C159.038 259.452 160.304 257.847 161.208 256.005C162.111 254.163 162.631 252.129 162.731 250.046L207.695 235.916L189.171 218.834L149.312 234.871C146.07 234.922 142.957 236.26 140.564 238.63C138.172 241 136.665 244.239 136.33 247.732C135.995 251.225 136.855 254.73 138.746 257.582C140.638 260.434 143.43 262.436 146.594 263.208V263.208Z" fill="#FFB6B6"/>
<path d="M230.02 204.308L208.634 151.009C206.885 146.633 203.761 143.07 199.816 140.951C198.597 140.301 197.316 139.795 195.997 139.443C195.792 139.387 195.588 139.335 195.384 139.293C192.585 138.631 189.683 138.69 186.909 139.462C184.374 140.168 182.004 141.444 179.955 143.208C177.906 144.972 176.223 147.184 175.016 149.699C175.003 149.72 174.991 149.742 174.981 149.765C173.633 152.589 172.916 155.716 172.888 158.895C172.86 162.074 173.522 165.216 174.82 168.067L175.086 168.642L190.198 201.51C190.714 202.634 191.005 203.863 191.051 205.118C191.098 206.372 190.899 207.622 190.467 208.788C190.036 209.953 189.382 211.006 188.549 211.878C187.715 212.75 186.72 213.421 185.63 213.848L184.569 214.263L165.48 221.729C164.048 222.283 162.87 223.417 162.194 224.892C161.518 226.367 161.397 228.069 161.857 229.639L161.904 229.804L167.255 248.346C167.281 248.431 167.307 248.516 167.338 248.601C167.385 248.761 167.443 248.916 167.512 249.067C168.081 250.448 169.086 251.564 170.346 252.214C171.607 252.865 173.041 253.006 174.389 252.614L184.691 249.67L186.792 249.067L213.393 241.459C216.893 240.457 220.152 238.648 222.947 236.156C225.742 233.664 228.006 230.547 229.585 227.019C231.164 223.491 232.02 219.635 232.095 215.715C232.17 211.795 231.462 207.904 230.02 204.308L230.02 204.308Z" fill="#CACACA"/>
<path d="M19.5315 249.067C25.6959 257.209 32.344 264.908 39.4336 272.113H236.049C237.943 272.116 239.759 272.933 241.098 274.384C242.437 275.835 243.19 277.802 243.192 279.853L243.475 333.807C255.57 327.789 266.898 320.105 277.176 310.945C280.029 308.406 282.795 305.757 285.471 302.998C287.225 301.198 288.936 299.355 290.605 297.467C303.118 283.351 313.25 266.97 320.543 249.067H19.5315Z" fill="#3F3D56"/>
<path d="M290.605 297.467C288.939 299.356 287.228 301.2 285.472 302.998H243.618V297.467H290.605Z" fill="white"/>
<path d="M199.52 120.576C199.314 120.163 199.008 119.818 198.635 119.577C198.262 119.337 197.836 119.21 197.402 119.21H54.7854C54.146 119.212 53.5333 119.488 53.0816 119.978C52.6298 120.468 52.3759 121.132 52.3754 121.825V214.263H199.816V121.825C199.819 121.388 199.717 120.958 199.52 120.576Z" fill="#3F3D56"/>
<path d="M52.2462 211.76V223.167C52.2462 223.64 52.3322 224.108 52.4993 224.545C52.6664 224.982 52.9114 225.379 53.2201 225.713C53.5289 226.048 53.8955 226.313 54.2989 226.494C54.7024 226.675 55.1347 226.768 55.5714 226.768H109.991V249.28H109.268C109.211 249.28 109.155 249.292 109.103 249.315C109.05 249.339 109.003 249.373 108.962 249.417C108.922 249.46 108.891 249.512 108.869 249.569C108.847 249.625 108.836 249.686 108.836 249.748V251.313C108.836 251.375 108.847 251.436 108.869 251.492C108.891 251.549 108.922 251.601 108.962 251.644C109.003 251.688 109.05 251.722 109.103 251.746C109.155 251.769 109.211 251.781 109.268 251.781H143.051C143.107 251.781 143.164 251.769 143.216 251.746C143.268 251.722 143.316 251.688 143.356 251.644C143.396 251.601 143.428 251.549 143.45 251.492C143.472 251.436 143.483 251.375 143.483 251.313V249.748C143.483 249.686 143.472 249.625 143.45 249.569C143.428 249.512 143.396 249.46 143.356 249.417C143.316 249.373 143.268 249.339 143.216 249.315C143.164 249.292 143.107 249.28 143.051 249.28H142.328V226.768H196.747C197.184 226.768 197.616 226.675 198.02 226.494C198.423 226.313 198.79 226.048 199.099 225.713C199.407 225.379 199.652 224.982 199.819 224.545C199.986 224.108 200.072 223.64 200.072 223.167V211.76H52.2462Z" fill="#3F3D56"/>
<path d="M124.373 179.02C131.895 179.02 137.992 172.417 137.992 164.272C137.992 156.127 131.895 149.524 124.373 149.524C116.852 149.524 110.754 156.127 110.754 164.272C110.754 172.417 116.852 179.02 124.373 179.02Z" fill="#E42024"/>
<path d="M159.072 81.499H156.897C156.897 63.6916 140.623 52.0227 124.206 52.0132C121.818 52.0057 119.435 52.2566 117.093 52.7623C114.457 53.3323 111.721 54.0154 109.032 54.9057C98.4308 58.4248 88.5994 65.2274 88.5994 81.499C88.5971 84.659 88.9685 87.8064 89.7044 90.8643L87.5989 91.4579C86.8179 88.2059 86.4232 84.8592 86.4243 81.499C86.4243 67.2814 91.8142 57.5156 101.124 51.6929C106.018 48.6308 111.99 46.6569 118.833 45.6959C121.681 45.2856 124.56 45.1909 127.425 45.4132C146.305 46.883 159.072 62.561 159.072 81.499Z" fill="#E42024"/>
<path d="M162.696 82.8039L161.839 75.9448C161.628 74.2126 160.857 72.6172 159.664 71.4411C158.898 70.6744 157.981 70.1063 156.983 69.7799C155.984 69.4534 154.93 69.3771 153.9 69.5567L152.539 69.7593C152.166 69.8124 151.807 69.9451 151.482 70.1497C151.157 70.3543 150.873 70.6267 150.646 70.9512C150.417 71.2745 150.25 71.6437 150.154 72.0375C150.057 72.4313 150.034 72.8418 150.085 73.2454L152.064 89.0459C152.146 89.6899 152.412 90.2898 152.826 90.7607C153.24 91.2316 153.78 91.5497 154.37 91.6699C154.545 91.7078 154.722 91.7267 154.901 91.7264C155.029 91.7264 155.157 91.7169 155.283 91.6981L156.806 91.4767C157.734 91.3433 158.628 91.0058 159.431 90.4849C160.235 89.964 160.931 89.2707 161.478 88.4476C161.596 88.2686 161.709 88.0849 161.813 87.8964C162.628 86.3549 162.94 84.5606 162.696 82.8039Z" fill="#E42024"/>
<path d="M151.66 70.0467C151.26 70.2568 150.913 70.5669 150.646 70.9512C150.417 71.2745 150.25 71.6437 150.154 72.0375C150.057 72.4313 150.034 72.8418 150.085 73.2454L152.064 89.0459C152.146 89.6899 152.412 90.2898 152.826 90.7607C153.24 91.2316 153.78 91.5497 154.37 91.6699L151.66 70.0467Z" fill="white"/>
<path d="M162.696 82.8039L161.839 75.9448C161.628 74.2126 160.857 72.6172 159.664 71.4411L161.635 87.1615C161.664 87.4139 161.724 87.6609 161.813 87.8964C162.628 86.355 162.94 84.5607 162.696 82.8039Z" fill="#3F3D56"/>
<path d="M155.923 87.746C156.518 87.6585 156.817 86.1247 156.591 84.3199C156.365 82.5152 155.7 81.1231 155.104 81.2105C154.509 81.298 154.21 82.8319 154.436 84.6366C154.662 86.4413 155.328 87.8334 155.923 87.746Z" fill="#3F3D56"/>
<path d="M154.618 79.2663C155.213 79.1789 155.512 77.645 155.286 75.8403C155.06 74.0356 154.395 72.6434 153.799 72.7309C153.204 72.8183 152.905 74.3522 153.131 76.1569C153.357 77.9616 154.023 79.3537 154.618 79.2663Z" fill="#3F3D56"/>
<path d="M162.883 82.564C163.479 82.4765 163.778 80.9426 163.552 79.1379C163.326 77.3332 162.66 75.9411 162.065 76.0285C161.469 76.1159 161.17 77.6498 161.396 79.4546C161.622 81.2593 162.288 82.6514 162.883 82.564Z" fill="#3F3D56"/>
<path d="M124.206 52.0132C121.818 52.0057 119.435 52.2566 117.093 52.7623C114.457 53.3323 111.721 54.0154 109.032 54.9057C104.834 54.6843 101.746 53.5066 101.124 51.6929C106.018 48.6308 111.99 46.6569 118.833 45.6959C121.681 45.2856 124.559 45.1909 127.425 45.4132C127.728 45.6058 127.99 45.8657 128.194 46.1758C128.398 46.486 128.539 46.8394 128.608 47.2128C128.813 48.8522 127.085 50.5952 124.206 52.0132Z" fill="#3F3D56"/>
<path d="M96.4341 97.8459L93.0845 82.7662C92.965 82.2222 92.6998 81.7285 92.3221 81.3471C91.9444 80.9658 91.4711 80.7137 90.9616 80.6227C90.8176 80.5985 90.6722 80.5859 90.5266 80.5851C90.3213 80.5858 90.1169 80.6127 89.9175 80.6651L88.6212 81.0043C86.9521 81.4415 85.5113 82.5778 84.615 84.1641C83.7187 85.7503 83.4401 87.6568 83.8403 89.4652L85.3411 96.2301C85.6838 97.8227 86.4999 99.2494 87.6641 100.291C87.8528 100.456 88.0503 100.608 88.2558 100.748C88.9849 101.243 89.7983 101.574 90.6478 101.723C91.4973 101.872 92.3658 101.835 93.2019 101.615L94.4939 101.276C94.8355 101.189 95.1569 101.027 95.4379 100.8C95.8557 100.47 96.1735 100.013 96.3509 99.4869C96.5283 98.9609 96.5572 98.3898 96.4341 97.8459Z" fill="#E42024"/>
<path d="M89.412 95.0402C89.9959 94.888 90.1503 93.3292 89.7569 91.5585C89.3634 89.7878 88.571 88.4757 87.9871 88.6279C87.4031 88.7801 87.2487 90.3389 87.6421 92.1096C88.0356 93.8803 88.828 95.1923 89.412 95.0402Z" fill="#3F3D56"/>
<path d="M85.0617 96.4535C85.6457 96.3013 85.8001 94.7425 85.4066 92.9718C85.0132 91.2011 84.2208 89.889 83.6368 90.0412C83.0529 90.1934 82.8984 91.7522 83.2919 93.5229C83.6854 95.2936 84.4778 96.6056 85.0617 96.4535Z" fill="#3F3D56"/>
<path d="M96.6472 97.7894L93.2976 82.7097C93.1671 82.121 92.8791 81.5871 92.4698 81.1749C92.0605 80.7626 91.5479 80.4902 90.9963 80.3919L95.5684 100.988C96.0199 100.63 96.3634 100.135 96.5554 99.5658C96.7474 98.9965 96.7793 98.3783 96.6472 97.7894Z" fill="white"/>
<path d="M84.5972 86.4784C84.5048 86.0591 84.3313 85.6657 84.0882 85.3242C83.6173 86.6448 83.5308 88.0898 83.8403 89.4652L85.3411 96.2301C85.6837 97.8227 86.4999 99.2494 87.6641 100.291L84.5972 86.4784Z" fill="#3F3D56"/>
</g>
<defs>
<clipPath id="clip0_15_251">
<rect width="370" height="349" fill="white"/>
</clipPath>
</defs>
</svg>
